<mxfile host="Electron" agent="Mozilla/5.0 (Windows NT 10.0; Win64; x64) AppleWebKit/537.36 (KHTML, like Gecko) draw.io/26.0.9 Chrome/128.0.6613.186 Electron/32.2.5 Safari/537.36" version="26.0.9">
  <diagram name="Page-1" id="vsFpGM8cMpQ58_ePYn85">
    <mxGraphModel dx="1969" dy="984" grid="1" gridSize="10" guides="1" tooltips="1" connect="1" arrows="1" fold="1" page="1" pageScale="1" pageWidth="850" pageHeight="1100" math="0" shadow="0">
      <root>
        <mxCell id="0" />
        <mxCell id="1" parent="0" />
        <mxCell id="k6nBy3I7K8xRcGhtrXj--1" value="&lt;font style=&quot;font-size: 14px;&quot;&gt;Transmit I/O pins&lt;br&gt;map int to binary&lt;/font&gt;" style="rounded=0;whiteSpace=wrap;html=1;fillColor=#FFCC99;rotation=0;" parent="1" vertex="1">
          <mxGeometry x="160" y="560" width="120" height="80" as="geometry" />
        </mxCell>
        <mxCell id="k6nBy3I7K8xRcGhtrXj--2" value="" style="endArrow=classic;html=1;rounded=0;exitX=0;exitY=0.5;exitDx=0;exitDy=0;strokeWidth=4;strokeColor=#009900;" parent="1" source="k6nBy3I7K8xRcGhtrXj--1" edge="1">
          <mxGeometry width="50" height="50" relative="1" as="geometry">
            <mxPoint x="80" y="650" as="sourcePoint" />
            <mxPoint x="120" y="600" as="targetPoint" />
          </mxGeometry>
        </mxCell>
        <mxCell id="k6nBy3I7K8xRcGhtrXj--3" value="&lt;font style=&quot;font-size: 14px;&quot;&gt;DA0-9&lt;/font&gt;" style="text;html=1;strokeColor=none;fillColor=none;align=center;verticalAlign=middle;whiteSpace=wrap;rounded=0;" parent="1" vertex="1">
          <mxGeometry x="70" y="585" width="60" height="30" as="geometry" />
        </mxCell>
        <mxCell id="k6nBy3I7K8xRcGhtrXj--5" value="" style="endArrow=classic;html=1;rounded=0;strokeWidth=4;entryX=0;entryY=0.5;entryDx=0;entryDy=0;exitX=1;exitY=0.5;exitDx=0;exitDy=0;" parent="1" source="9bQRH0FdYBQ_Yc0oaRbt-37" target="fVUcmllLcyqqEy-csJnl-25" edge="1">
          <mxGeometry width="50" height="50" relative="1" as="geometry">
            <mxPoint x="120" y="800" as="sourcePoint" />
            <mxPoint x="160" y="800" as="targetPoint" />
          </mxGeometry>
        </mxCell>
        <mxCell id="k6nBy3I7K8xRcGhtrXj--6" value="&lt;font style=&quot;font-size: 14px;&quot;&gt;AD0-9&lt;/font&gt;" style="text;html=1;strokeColor=none;fillColor=none;align=center;verticalAlign=middle;whiteSpace=wrap;rounded=0;" parent="1" vertex="1">
          <mxGeometry x="60" y="780" width="60" height="30" as="geometry" />
        </mxCell>
        <mxCell id="fVUcmllLcyqqEy-csJnl-1" value="&lt;font style=&quot;font-size: 18px;&quot;&gt;Transmit message register&lt;/font&gt;" style="rounded=0;whiteSpace=wrap;html=1;fillColor=#B3FF66;" parent="1" vertex="1">
          <mxGeometry x="320" y="560" width="160" height="80" as="geometry" />
        </mxCell>
        <mxCell id="fVUcmllLcyqqEy-csJnl-3" value="" style="endArrow=classic;html=1;rounded=0;exitX=0;exitY=0.5;exitDx=0;exitDy=0;strokeWidth=4;entryX=1;entryY=0.5;entryDx=0;entryDy=0;" parent="1" source="fVUcmllLcyqqEy-csJnl-1" target="k6nBy3I7K8xRcGhtrXj--1" edge="1">
          <mxGeometry width="50" height="50" relative="1" as="geometry">
            <mxPoint x="170" y="610" as="sourcePoint" />
            <mxPoint x="290" y="600" as="targetPoint" />
          </mxGeometry>
        </mxCell>
        <mxCell id="fVUcmllLcyqqEy-csJnl-4" value="Turn&lt;br&gt;on&lt;br&gt;Delay" style="rhombus;whiteSpace=wrap;html=1;" parent="1" vertex="1">
          <mxGeometry x="480" y="460" width="80" height="80" as="geometry" />
        </mxCell>
        <mxCell id="fVUcmllLcyqqEy-csJnl-6" value="" style="endArrow=classic;html=1;rounded=0;strokeWidth=4;entryX=0.25;entryY=0;entryDx=0;entryDy=0;dashed=1;" parent="1" target="fVUcmllLcyqqEy-csJnl-1" edge="1">
          <mxGeometry width="50" height="50" relative="1" as="geometry">
            <mxPoint x="120" y="320" as="sourcePoint" />
            <mxPoint x="140" y="460" as="targetPoint" />
            <Array as="points">
              <mxPoint x="360" y="320" />
            </Array>
          </mxGeometry>
        </mxCell>
        <mxCell id="fVUcmllLcyqqEy-csJnl-7" value="" style="endArrow=classic;html=1;rounded=0;exitX=0;exitY=0.5;exitDx=0;exitDy=0;strokeWidth=4;entryX=0.75;entryY=0;entryDx=0;entryDy=0;" parent="1" source="fVUcmllLcyqqEy-csJnl-4" target="fVUcmllLcyqqEy-csJnl-1" edge="1">
          <mxGeometry width="50" height="50" relative="1" as="geometry">
            <mxPoint x="190" y="630" as="sourcePoint" />
            <mxPoint x="150" y="630" as="targetPoint" />
            <Array as="points">
              <mxPoint x="440" y="500" />
            </Array>
          </mxGeometry>
        </mxCell>
        <mxCell id="fVUcmllLcyqqEy-csJnl-11" value="" style="endArrow=classic;html=1;rounded=0;strokeWidth=4;strokeColor=#009900;" parent="1" edge="1">
          <mxGeometry width="50" height="50" relative="1" as="geometry">
            <mxPoint x="810" y="500" as="sourcePoint" />
            <mxPoint x="120" y="440" as="targetPoint" />
            <Array as="points">
              <mxPoint x="810" y="440" />
            </Array>
          </mxGeometry>
        </mxCell>
        <mxCell id="fVUcmllLcyqqEy-csJnl-12" value="&lt;font style=&quot;font-size: 14px;&quot;&gt;Radio_CLk&lt;/font&gt;" style="text;html=1;strokeColor=none;fillColor=none;align=center;verticalAlign=middle;whiteSpace=wrap;rounded=0;" parent="1" vertex="1">
          <mxGeometry x="60" y="300" width="60" height="30" as="geometry" />
        </mxCell>
        <mxCell id="fVUcmllLcyqqEy-csJnl-13" value="&lt;font style=&quot;font-size: 14px;&quot;&gt;TX_EN&lt;/font&gt;" style="text;html=1;strokeColor=none;fillColor=none;align=center;verticalAlign=middle;whiteSpace=wrap;rounded=0;" parent="1" vertex="1">
          <mxGeometry x="60" y="420" width="60" height="30" as="geometry" />
        </mxCell>
        <mxCell id="fVUcmllLcyqqEy-csJnl-14" value="" style="endArrow=classic;html=1;rounded=0;strokeWidth=4;entryX=1;entryY=0.5;entryDx=0;entryDy=0;exitX=0.25;exitY=0;exitDx=0;exitDy=0;strokeColor=#009900;" parent="1" source="fKqxcsbEL_6MsnyXHgG2-2" target="fVUcmllLcyqqEy-csJnl-4" edge="1">
          <mxGeometry width="50" height="50" relative="1" as="geometry">
            <mxPoint x="600" y="500" as="sourcePoint" />
            <mxPoint x="540" y="499.62" as="targetPoint" />
            <Array as="points">
              <mxPoint x="810" y="500" />
            </Array>
          </mxGeometry>
        </mxCell>
        <mxCell id="fVUcmllLcyqqEy-csJnl-15" value="&lt;font style=&quot;font-size: 18px;&quot;&gt;I2C module&lt;/font&gt;" style="rounded=0;whiteSpace=wrap;html=1;fillColor=#FFCC99;rotation=0;" parent="1" vertex="1">
          <mxGeometry x="1360" y="660" width="120" height="80" as="geometry" />
        </mxCell>
        <mxCell id="fVUcmllLcyqqEy-csJnl-16" value="&lt;font style=&quot;font-size: 18px;&quot;&gt;Data registers&lt;br&gt;labelled as 8 bit addresses&lt;/font&gt;" style="rounded=0;whiteSpace=wrap;html=1;fillColor=#B3FF66;" parent="1" vertex="1">
          <mxGeometry x="1160" y="660" width="160" height="80" as="geometry" />
        </mxCell>
        <mxCell id="fVUcmllLcyqqEy-csJnl-18" value="" style="endArrow=classic;html=1;rounded=0;strokeWidth=4;entryX=1;entryY=0.25;entryDx=0;entryDy=0;" parent="1" target="fVUcmllLcyqqEy-csJnl-15" edge="1">
          <mxGeometry width="50" height="50" relative="1" as="geometry">
            <mxPoint x="1520" y="680" as="sourcePoint" />
            <mxPoint x="1100" y="510" as="targetPoint" />
          </mxGeometry>
        </mxCell>
        <mxCell id="fVUcmllLcyqqEy-csJnl-19" value="" style="endArrow=classic;html=1;rounded=0;strokeWidth=4;entryX=1;entryY=0.75;entryDx=0;entryDy=0;" parent="1" target="fVUcmllLcyqqEy-csJnl-15" edge="1">
          <mxGeometry width="50" height="50" relative="1" as="geometry">
            <mxPoint x="1520" y="720" as="sourcePoint" />
            <mxPoint x="1110" y="520" as="targetPoint" />
          </mxGeometry>
        </mxCell>
        <mxCell id="fVUcmllLcyqqEy-csJnl-20" value="&lt;font style=&quot;font-size: 14px;&quot;&gt;SDA&lt;/font&gt;" style="text;html=1;strokeColor=none;fillColor=none;align=center;verticalAlign=middle;whiteSpace=wrap;rounded=0;" parent="1" vertex="1">
          <mxGeometry x="1510" y="700" width="60" height="30" as="geometry" />
        </mxCell>
        <mxCell id="fVUcmllLcyqqEy-csJnl-21" value="&lt;font style=&quot;font-size: 14px;&quot;&gt;SCL&lt;/font&gt;" style="text;html=1;strokeColor=none;fillColor=none;align=center;verticalAlign=middle;whiteSpace=wrap;rounded=0;" parent="1" vertex="1">
          <mxGeometry x="1510" y="660" width="60" height="30" as="geometry" />
        </mxCell>
        <mxCell id="fVUcmllLcyqqEy-csJnl-22" value="" style="endArrow=classic;startArrow=classic;html=1;rounded=0;entryX=0;entryY=0.5;entryDx=0;entryDy=0;exitX=1;exitY=0.5;exitDx=0;exitDy=0;strokeWidth=4;" parent="1" source="fVUcmllLcyqqEy-csJnl-16" target="fVUcmllLcyqqEy-csJnl-15" edge="1">
          <mxGeometry width="50" height="50" relative="1" as="geometry">
            <mxPoint x="1380" y="810" as="sourcePoint" />
            <mxPoint x="1430" y="760" as="targetPoint" />
          </mxGeometry>
        </mxCell>
        <mxCell id="fVUcmllLcyqqEy-csJnl-25" value="&lt;font style=&quot;font-size: 18px;&quot;&gt;Receive message register&lt;/font&gt;" style="rounded=0;whiteSpace=wrap;html=1;fillColor=#B3FF66;" parent="1" vertex="1">
          <mxGeometry x="640" y="730" width="160" height="80" as="geometry" />
        </mxCell>
        <mxCell id="fVUcmllLcyqqEy-csJnl-28" value="" style="endArrow=classic;html=1;rounded=0;strokeWidth=4;entryX=0.25;entryY=0;entryDx=0;entryDy=0;dashed=1;" parent="1" target="fVUcmllLcyqqEy-csJnl-25" edge="1">
          <mxGeometry width="50" height="50" relative="1" as="geometry">
            <mxPoint x="300" y="320" as="sourcePoint" />
            <mxPoint x="370" y="570" as="targetPoint" />
            <Array as="points">
              <mxPoint x="300" y="680" />
              <mxPoint x="680" y="680" />
            </Array>
          </mxGeometry>
        </mxCell>
        <mxCell id="fVUcmllLcyqqEy-csJnl-32" value="&lt;font style=&quot;font-size: 14px;&quot;&gt;RX_EN&lt;/font&gt;" style="text;html=1;strokeColor=none;fillColor=none;align=center;verticalAlign=middle;whiteSpace=wrap;rounded=0;" parent="1" vertex="1">
          <mxGeometry x="60" y="380" width="60" height="30" as="geometry" />
        </mxCell>
        <mxCell id="fVUcmllLcyqqEy-csJnl-34" value="&lt;font style=&quot;font-size: 14px;&quot;&gt;Data to message associated&lt;br&gt;Transmit[XX-XX] &amp;lt;= Data register A&lt;/font&gt;" style="rounded=0;whiteSpace=wrap;html=1;fillColor=#99CCFF;strokeColor=#6c8ebf;" parent="1" vertex="1">
          <mxGeometry x="520" y="560" width="160" height="80" as="geometry" />
        </mxCell>
        <mxCell id="fVUcmllLcyqqEy-csJnl-36" value="Data to message associated&lt;br&gt;Transmit[XX-XX] &amp;lt;= Data register A&lt;br&gt;Also Error Checking" style="rounded=0;whiteSpace=wrap;html=1;fillColor=#99CCFF;strokeColor=#6c8ebf;" parent="1" vertex="1">
          <mxGeometry x="920" y="730" width="160" height="80" as="geometry" />
        </mxCell>
        <mxCell id="fVUcmllLcyqqEy-csJnl-37" value="" style="endArrow=classic;html=1;rounded=0;strokeWidth=4;entryX=1;entryY=0.5;entryDx=0;entryDy=0;exitX=0;exitY=0.5;exitDx=0;exitDy=0;" parent="1" source="fVUcmllLcyqqEy-csJnl-34" target="fVUcmllLcyqqEy-csJnl-1" edge="1">
          <mxGeometry width="50" height="50" relative="1" as="geometry">
            <mxPoint x="610" y="510" as="sourcePoint" />
            <mxPoint x="570" y="510" as="targetPoint" />
          </mxGeometry>
        </mxCell>
        <mxCell id="fVUcmllLcyqqEy-csJnl-39" value="" style="endArrow=classic;html=1;rounded=0;strokeWidth=4;entryX=0;entryY=0.75;entryDx=0;entryDy=0;exitX=1;exitY=0.5;exitDx=0;exitDy=0;" parent="1" source="fVUcmllLcyqqEy-csJnl-36" target="fVUcmllLcyqqEy-csJnl-16" edge="1">
          <mxGeometry width="50" height="50" relative="1" as="geometry">
            <mxPoint x="750" y="530" as="sourcePoint" />
            <mxPoint x="710" y="530" as="targetPoint" />
            <Array as="points">
              <mxPoint x="1120" y="770" />
              <mxPoint x="1120" y="720" />
            </Array>
          </mxGeometry>
        </mxCell>
        <mxCell id="fVUcmllLcyqqEy-csJnl-40" value="" style="endArrow=classic;html=1;rounded=0;strokeWidth=4;entryX=1;entryY=0.5;entryDx=0;entryDy=0;exitX=0;exitY=0.25;exitDx=0;exitDy=0;" parent="1" source="fVUcmllLcyqqEy-csJnl-16" target="fVUcmllLcyqqEy-csJnl-34" edge="1">
          <mxGeometry width="50" height="50" relative="1" as="geometry">
            <mxPoint x="640" y="540" as="sourcePoint" />
            <mxPoint x="600" y="540" as="targetPoint" />
            <Array as="points">
              <mxPoint x="720" y="680" />
              <mxPoint x="720" y="600" />
            </Array>
          </mxGeometry>
        </mxCell>
        <mxCell id="fVUcmllLcyqqEy-csJnl-42" value="Multiplexer" style="shape=trapezoid;perimeter=trapezoidPerimeter;whiteSpace=wrap;html=1;fixedSize=1;direction=north;" parent="1" vertex="1">
          <mxGeometry x="360" y="740" width="60" height="120" as="geometry" />
        </mxCell>
        <mxCell id="fVUcmllLcyqqEy-csJnl-45" value="Message identifier&lt;br&gt;Checks if first X symbols are what we expect identifying a message as &quot;ours&quot;" style="rounded=0;whiteSpace=wrap;html=1;fillColor=#9999FF;strokeColor=#6c8ebf;" parent="1" vertex="1">
          <mxGeometry x="480" y="840" width="160" height="80" as="geometry" />
        </mxCell>
        <mxCell id="fVUcmllLcyqqEy-csJnl-46" value="" style="endArrow=classic;html=1;rounded=0;strokeWidth=4;exitX=0.25;exitY=1;exitDx=0;exitDy=0;entryX=0;entryY=0.5;entryDx=0;entryDy=0;" parent="1" source="fVUcmllLcyqqEy-csJnl-42" target="fVUcmllLcyqqEy-csJnl-45" edge="1">
          <mxGeometry width="50" height="50" relative="1" as="geometry">
            <mxPoint x="430" y="780" as="sourcePoint" />
            <mxPoint x="490" y="780" as="targetPoint" />
            <Array as="points">
              <mxPoint x="450" y="830" />
              <mxPoint x="450" y="880" />
            </Array>
          </mxGeometry>
        </mxCell>
        <mxCell id="fVUcmllLcyqqEy-csJnl-47" value="" style="endArrow=classic;html=1;rounded=0;strokeWidth=4;exitX=0.5;exitY=1;exitDx=0;exitDy=0;entryX=0;entryY=0.5;entryDx=0;entryDy=0;" parent="1" source="fVUcmllLcyqqEy-csJnl-45" target="fVUcmllLcyqqEy-csJnl-42" edge="1">
          <mxGeometry width="50" height="50" relative="1" as="geometry">
            <mxPoint x="440" y="790" as="sourcePoint" />
            <mxPoint x="500" y="790" as="targetPoint" />
            <Array as="points">
              <mxPoint x="560" y="940" />
              <mxPoint x="390" y="940" />
            </Array>
          </mxGeometry>
        </mxCell>
        <mxCell id="fVUcmllLcyqqEy-csJnl-48" value="1" style="text;html=1;strokeColor=none;fillColor=none;align=center;verticalAlign=middle;whiteSpace=wrap;rounded=0;" parent="1" vertex="1">
          <mxGeometry x="400" y="760" width="20" height="20" as="geometry" />
        </mxCell>
        <mxCell id="fVUcmllLcyqqEy-csJnl-49" value="0" style="text;html=1;strokeColor=none;fillColor=none;align=center;verticalAlign=middle;whiteSpace=wrap;rounded=0;" parent="1" vertex="1">
          <mxGeometry x="400" y="820" width="20" height="20" as="geometry" />
        </mxCell>
        <mxCell id="fVUcmllLcyqqEy-csJnl-53" value="" style="endArrow=classic;html=1;rounded=0;strokeWidth=4;entryX=0.5;entryY=0;entryDx=0;entryDy=0;strokeColor=#009900;" parent="1" target="fVUcmllLcyqqEy-csJnl-42" edge="1">
          <mxGeometry width="50" height="50" relative="1" as="geometry">
            <mxPoint x="120" y="800" as="sourcePoint" />
            <mxPoint x="170" y="810" as="targetPoint" />
          </mxGeometry>
        </mxCell>
        <mxCell id="fVUcmllLcyqqEy-csJnl-54" value="&lt;font style=&quot;font-size: 18px;&quot;&gt;I/O device&lt;/font&gt;" style="rounded=0;whiteSpace=wrap;html=1;fillColor=#FFCC99;" parent="1" vertex="1">
          <mxGeometry x="990" y="420" width="120" height="60" as="geometry" />
        </mxCell>
        <mxCell id="fVUcmllLcyqqEy-csJnl-55" value="&lt;font style=&quot;font-size: 18px;&quot;&gt;Register&lt;/font&gt;" style="rounded=0;whiteSpace=wrap;html=1;fillColor=#B3FF66;" parent="1" vertex="1">
          <mxGeometry x="990" y="480" width="120" height="60" as="geometry" />
        </mxCell>
        <mxCell id="fVUcmllLcyqqEy-csJnl-56" value="&lt;font style=&quot;font-size: 18px;&quot;&gt;Pure Logic&lt;/font&gt;" style="rounded=0;whiteSpace=wrap;html=1;fillColor=#99CCFF;" parent="1" vertex="1">
          <mxGeometry x="990" y="540" width="120" height="60" as="geometry" />
        </mxCell>
        <mxCell id="fVUcmllLcyqqEy-csJnl-57" value="&lt;font style=&quot;font-size: 18px;&quot;&gt;Finite State&lt;br&gt;Machine&lt;/font&gt;" style="rounded=0;whiteSpace=wrap;html=1;fillColor=#9999FF;" parent="1" vertex="1">
          <mxGeometry x="1110" y="420" width="120" height="60" as="geometry" />
        </mxCell>
        <mxCell id="fVUcmllLcyqqEy-csJnl-59" value="" style="endArrow=classic;html=1;rounded=0;strokeWidth=4;exitX=0.75;exitY=1;exitDx=0;exitDy=0;entryX=0;entryY=0.5;entryDx=0;entryDy=0;" parent="1" source="fVUcmllLcyqqEy-csJnl-42" target="9bQRH0FdYBQ_Yc0oaRbt-37" edge="1">
          <mxGeometry width="50" height="50" relative="1" as="geometry">
            <mxPoint x="390" y="780" as="sourcePoint" />
            <mxPoint x="470" y="710" as="targetPoint" />
          </mxGeometry>
        </mxCell>
        <mxCell id="fVUcmllLcyqqEy-csJnl-60" value="" style="endArrow=classic;html=1;rounded=0;strokeWidth=4;entryX=1;entryY=0.5;entryDx=0;entryDy=0;exitX=0.25;exitY=1;exitDx=0;exitDy=0;" parent="1" source="fVUcmllLcyqqEy-csJnl-25" target="fVUcmllLcyqqEy-csJnl-45" edge="1">
          <mxGeometry width="50" height="50" relative="1" as="geometry">
            <mxPoint x="300" y="820" as="sourcePoint" />
            <mxPoint x="340" y="820" as="targetPoint" />
            <Array as="points">
              <mxPoint x="680" y="880" />
              <mxPoint x="640" y="880" />
            </Array>
          </mxGeometry>
        </mxCell>
        <mxCell id="fVUcmllLcyqqEy-csJnl-61" value="Receive full" style="text;html=1;strokeColor=none;fillColor=none;align=center;verticalAlign=middle;whiteSpace=wrap;rounded=0;" parent="1" vertex="1">
          <mxGeometry x="680" y="815" width="60" height="30" as="geometry" />
        </mxCell>
        <mxCell id="fVUcmllLcyqqEy-csJnl-62" value="Identifier control" style="text;html=1;strokeColor=none;fillColor=none;align=center;verticalAlign=middle;whiteSpace=wrap;rounded=0;" parent="1" vertex="1">
          <mxGeometry x="560" y="920" width="60" height="30" as="geometry" />
        </mxCell>
        <mxCell id="fVUcmllLcyqqEy-csJnl-64" value="" style="endArrow=classic;html=1;rounded=0;strokeWidth=4;entryX=0;entryY=0.5;entryDx=0;entryDy=0;exitX=1;exitY=0.5;exitDx=0;exitDy=0;" parent="1" source="fVUcmllLcyqqEy-csJnl-25" target="fVUcmllLcyqqEy-csJnl-36" edge="1">
          <mxGeometry width="50" height="50" relative="1" as="geometry">
            <mxPoint x="350" y="830" as="sourcePoint" />
            <mxPoint x="390" y="830" as="targetPoint" />
          </mxGeometry>
        </mxCell>
        <mxCell id="fVUcmllLcyqqEy-csJnl-65" value="&lt;font style=&quot;font-size: 18px;&quot;&gt;Basic Block&lt;/font&gt;" style="rounded=0;whiteSpace=wrap;html=1;" parent="1" vertex="1">
          <mxGeometry x="1110" y="480" width="120" height="60" as="geometry" />
        </mxCell>
        <mxCell id="fVUcmllLcyqqEy-csJnl-66" value="Rate control" style="text;html=1;strokeColor=none;fillColor=none;align=center;verticalAlign=middle;whiteSpace=wrap;rounded=0;" parent="1" vertex="1">
          <mxGeometry x="310" y="530" width="60" height="30" as="geometry" />
        </mxCell>
        <mxCell id="fVUcmllLcyqqEy-csJnl-69" value="Rate control" style="text;html=1;strokeColor=none;fillColor=none;align=center;verticalAlign=middle;whiteSpace=wrap;rounded=0;" parent="1" vertex="1">
          <mxGeometry x="620" y="700" width="60" height="30" as="geometry" />
        </mxCell>
        <mxCell id="fVUcmllLcyqqEy-csJnl-71" value="Enable" style="text;html=1;strokeColor=none;fillColor=none;align=center;verticalAlign=middle;whiteSpace=wrap;rounded=0;" parent="1" vertex="1">
          <mxGeometry x="440" y="535" width="60" height="30" as="geometry" />
        </mxCell>
        <mxCell id="fKqxcsbEL_6MsnyXHgG2-2" value="&lt;font style=&quot;font-size: 18px;&quot;&gt;Control&lt;br&gt;Block&lt;br&gt;&lt;/font&gt;" style="rounded=0;whiteSpace=wrap;html=1;fillColor=#9999FF;strokeColor=#6c8ebf;" parent="1" vertex="1">
          <mxGeometry x="760" y="1040" width="200" height="120" as="geometry" />
        </mxCell>
        <mxCell id="9bQRH0FdYBQ_Yc0oaRbt-1" value="&lt;font size=&quot;3&quot;&gt;Other&lt;/font&gt;" style="rounded=0;whiteSpace=wrap;html=1;fillColor=#FF9999;" parent="1" vertex="1">
          <mxGeometry x="1110" y="540" width="120" height="60" as="geometry" />
        </mxCell>
        <mxCell id="9bQRH0FdYBQ_Yc0oaRbt-3" value="&lt;font style=&quot;font-size: 18px;&quot;&gt;Q channel&lt;br&gt;Average of the last X samples&lt;/font&gt;" style="rounded=0;whiteSpace=wrap;html=1;fillColor=#FF9999;" parent="1" vertex="1">
          <mxGeometry x="480" y="1010" width="160" height="80" as="geometry" />
        </mxCell>
        <mxCell id="9bQRH0FdYBQ_Yc0oaRbt-4" value="1-rising&lt;br&gt;0-falling" style="shape=trapezoid;perimeter=trapezoidPerimeter;whiteSpace=wrap;html=1;fixedSize=1;direction=north;" parent="1" vertex="1">
          <mxGeometry x="360" y="1040" width="60" height="120" as="geometry" />
        </mxCell>
        <mxCell id="9bQRH0FdYBQ_Yc0oaRbt-5" value="1" style="text;html=1;strokeColor=none;fillColor=none;align=center;verticalAlign=middle;whiteSpace=wrap;rounded=0;" parent="1" vertex="1">
          <mxGeometry x="400" y="1060" width="20" height="20" as="geometry" />
        </mxCell>
        <mxCell id="9bQRH0FdYBQ_Yc0oaRbt-6" value="0" style="text;html=1;strokeColor=none;fillColor=none;align=center;verticalAlign=middle;whiteSpace=wrap;rounded=0;" parent="1" vertex="1">
          <mxGeometry x="400" y="1120" width="20" height="20" as="geometry" />
        </mxCell>
        <mxCell id="9bQRH0FdYBQ_Yc0oaRbt-7" value="" style="endArrow=classic;html=1;rounded=0;strokeWidth=4;entryX=0.5;entryY=0;entryDx=0;entryDy=0;" parent="1" target="9bQRH0FdYBQ_Yc0oaRbt-4" edge="1">
          <mxGeometry width="50" height="50" relative="1" as="geometry">
            <mxPoint x="600" y="770" as="sourcePoint" />
            <mxPoint x="370" y="810" as="targetPoint" />
            <Array as="points">
              <mxPoint x="600" y="710" />
              <mxPoint x="320" y="710" />
              <mxPoint x="320" y="1100" />
            </Array>
          </mxGeometry>
        </mxCell>
        <mxCell id="9bQRH0FdYBQ_Yc0oaRbt-10" value="&lt;font style=&quot;font-size: 18px;&quot;&gt;I channel&lt;br&gt;Average of the last X samples&lt;/font&gt;" style="rounded=0;whiteSpace=wrap;html=1;fillColor=#FF9999;" parent="1" vertex="1">
          <mxGeometry x="480" y="1110" width="160" height="80" as="geometry" />
        </mxCell>
        <mxCell id="9bQRH0FdYBQ_Yc0oaRbt-14" value="" style="endArrow=classic;html=1;rounded=0;strokeWidth=4;entryX=0;entryY=0.75;entryDx=0;entryDy=0;exitX=0.75;exitY=1;exitDx=0;exitDy=0;" parent="1" source="9bQRH0FdYBQ_Yc0oaRbt-4" target="9bQRH0FdYBQ_Yc0oaRbt-3" edge="1">
          <mxGeometry width="50" height="50" relative="1" as="geometry">
            <mxPoint x="430" y="1060" as="sourcePoint" />
            <mxPoint x="370" y="850" as="targetPoint" />
          </mxGeometry>
        </mxCell>
        <mxCell id="9bQRH0FdYBQ_Yc0oaRbt-15" value="" style="endArrow=classic;html=1;rounded=0;strokeWidth=4;entryX=0;entryY=0.25;entryDx=0;entryDy=0;exitX=0.25;exitY=1;exitDx=0;exitDy=0;" parent="1" source="9bQRH0FdYBQ_Yc0oaRbt-4" target="9bQRH0FdYBQ_Yc0oaRbt-10" edge="1">
          <mxGeometry width="50" height="50" relative="1" as="geometry">
            <mxPoint x="430" y="1130" as="sourcePoint" />
            <mxPoint x="380" y="860" as="targetPoint" />
          </mxGeometry>
        </mxCell>
        <mxCell id="9bQRH0FdYBQ_Yc0oaRbt-16" value="" style="endArrow=classic;html=1;rounded=0;strokeWidth=4;entryX=0;entryY=0.5;entryDx=0;entryDy=0;dashed=1;" parent="1" target="9bQRH0FdYBQ_Yc0oaRbt-4" edge="1">
          <mxGeometry width="50" height="50" relative="1" as="geometry">
            <mxPoint x="300" y="680" as="sourcePoint" />
            <mxPoint x="370" y="570" as="targetPoint" />
            <Array as="points">
              <mxPoint x="300" y="1180" />
              <mxPoint x="390" y="1180" />
            </Array>
          </mxGeometry>
        </mxCell>
        <mxCell id="9bQRH0FdYBQ_Yc0oaRbt-17" value="&lt;font style=&quot;font-size: 18px;&quot;&gt;SPI module&lt;/font&gt;" style="rounded=0;whiteSpace=wrap;html=1;fillColor=#FFCC99;rotation=0;" parent="1" vertex="1">
          <mxGeometry x="160" y="1200" width="120" height="80" as="geometry" />
        </mxCell>
        <mxCell id="9bQRH0FdYBQ_Yc0oaRbt-18" value="" style="endArrow=classic;html=1;rounded=0;strokeWidth=4;entryX=0;entryY=0.25;entryDx=0;entryDy=0;exitX=1;exitY=0.75;exitDx=0;exitDy=0;" parent="1" source="9bQRH0FdYBQ_Yc0oaRbt-3" target="fKqxcsbEL_6MsnyXHgG2-2" edge="1">
          <mxGeometry width="50" height="50" relative="1" as="geometry">
            <mxPoint x="430" y="1080" as="sourcePoint" />
            <mxPoint x="490" y="1080" as="targetPoint" />
          </mxGeometry>
        </mxCell>
        <mxCell id="9bQRH0FdYBQ_Yc0oaRbt-19" value="" style="endArrow=classic;html=1;rounded=0;strokeWidth=4;entryX=0;entryY=0.75;entryDx=0;entryDy=0;exitX=1;exitY=0.25;exitDx=0;exitDy=0;" parent="1" source="9bQRH0FdYBQ_Yc0oaRbt-10" target="fKqxcsbEL_6MsnyXHgG2-2" edge="1">
          <mxGeometry width="50" height="50" relative="1" as="geometry">
            <mxPoint x="440" y="1090" as="sourcePoint" />
            <mxPoint x="500" y="1090" as="targetPoint" />
          </mxGeometry>
        </mxCell>
        <mxCell id="9bQRH0FdYBQ_Yc0oaRbt-20" value="" style="endArrow=classic;html=1;rounded=0;exitX=0;exitY=0.25;exitDx=0;exitDy=0;strokeWidth=4;" parent="1" source="9bQRH0FdYBQ_Yc0oaRbt-17" edge="1">
          <mxGeometry width="50" height="50" relative="1" as="geometry">
            <mxPoint x="160" y="1220" as="sourcePoint" />
            <mxPoint x="120" y="1220" as="targetPoint" />
          </mxGeometry>
        </mxCell>
        <mxCell id="9bQRH0FdYBQ_Yc0oaRbt-21" value="" style="endArrow=classic;html=1;rounded=0;exitX=0;exitY=0.5;exitDx=0;exitDy=0;strokeWidth=4;" parent="1" source="9bQRH0FdYBQ_Yc0oaRbt-17" edge="1">
          <mxGeometry width="50" height="50" relative="1" as="geometry">
            <mxPoint x="160" y="1239.74" as="sourcePoint" />
            <mxPoint x="120" y="1239.74" as="targetPoint" />
          </mxGeometry>
        </mxCell>
        <mxCell id="9bQRH0FdYBQ_Yc0oaRbt-22" value="" style="endArrow=classic;html=1;rounded=0;exitX=0;exitY=0.75;exitDx=0;exitDy=0;strokeWidth=4;" parent="1" source="9bQRH0FdYBQ_Yc0oaRbt-17" edge="1">
          <mxGeometry width="50" height="50" relative="1" as="geometry">
            <mxPoint x="160" y="1260" as="sourcePoint" />
            <mxPoint x="120" y="1260" as="targetPoint" />
          </mxGeometry>
        </mxCell>
        <mxCell id="9bQRH0FdYBQ_Yc0oaRbt-26" value="&lt;font style=&quot;font-size: 14px;&quot;&gt;CS_FE&lt;/font&gt;" style="text;html=1;strokeColor=none;fillColor=none;align=center;verticalAlign=middle;whiteSpace=wrap;rounded=0;" parent="1" vertex="1">
          <mxGeometry x="60" y="1200" width="60" height="30" as="geometry" />
        </mxCell>
        <mxCell id="9bQRH0FdYBQ_Yc0oaRbt-27" value="&lt;font style=&quot;font-size: 14px;&quot;&gt;CS_MOD&lt;/font&gt;" style="text;html=1;strokeColor=none;fillColor=none;align=center;verticalAlign=middle;whiteSpace=wrap;rounded=0;" parent="1" vertex="1">
          <mxGeometry x="60" y="1220" width="60" height="30" as="geometry" />
        </mxCell>
        <mxCell id="9bQRH0FdYBQ_Yc0oaRbt-28" value="&lt;font style=&quot;font-size: 14px;&quot;&gt;SPI CLK-SDI-SDO&amp;nbsp;&lt;/font&gt;" style="text;html=1;strokeColor=none;fillColor=none;align=center;verticalAlign=middle;whiteSpace=wrap;rounded=0;" parent="1" vertex="1">
          <mxGeometry x="10" y="1240" width="110" height="30" as="geometry" />
        </mxCell>
        <mxCell id="9bQRH0FdYBQ_Yc0oaRbt-30" value="" style="endArrow=classic;startArrow=classic;html=1;rounded=0;entryX=0.4;entryY=1.036;entryDx=0;entryDy=0;exitX=1;exitY=0.5;exitDx=0;exitDy=0;strokeWidth=4;entryPerimeter=0;" parent="1" source="9bQRH0FdYBQ_Yc0oaRbt-17" target="fKqxcsbEL_6MsnyXHgG2-2" edge="1">
          <mxGeometry width="50" height="50" relative="1" as="geometry">
            <mxPoint x="1250" y="710" as="sourcePoint" />
            <mxPoint x="1290" y="710" as="targetPoint" />
            <Array as="points">
              <mxPoint x="840" y="1240" />
            </Array>
          </mxGeometry>
        </mxCell>
        <mxCell id="9bQRH0FdYBQ_Yc0oaRbt-32" value="" style="endArrow=classic;html=1;rounded=0;strokeWidth=4;exitX=0.5;exitY=0;exitDx=0;exitDy=0;strokeColor=#009900;" parent="1" source="fKqxcsbEL_6MsnyXHgG2-2" edge="1">
          <mxGeometry width="50" height="50" relative="1" as="geometry">
            <mxPoint x="820" y="1010" as="sourcePoint" />
            <mxPoint x="120" y="400" as="targetPoint" />
            <Array as="points">
              <mxPoint x="860" y="400" />
            </Array>
          </mxGeometry>
        </mxCell>
        <mxCell id="9bQRH0FdYBQ_Yc0oaRbt-33" value="" style="endArrow=classic;html=1;rounded=0;strokeWidth=4;entryX=0.75;entryY=0;entryDx=0;entryDy=0;exitX=0.5;exitY=1;exitDx=0;exitDy=0;" parent="1" source="fVUcmllLcyqqEy-csJnl-36" target="fKqxcsbEL_6MsnyXHgG2-2" edge="1">
          <mxGeometry width="50" height="50" relative="1" as="geometry">
            <mxPoint x="650" y="1040" as="sourcePoint" />
            <mxPoint x="770" y="1040" as="targetPoint" />
            <Array as="points">
              <mxPoint x="1000" y="840" />
              <mxPoint x="910" y="840" />
            </Array>
          </mxGeometry>
        </mxCell>
        <mxCell id="9bQRH0FdYBQ_Yc0oaRbt-34" value="&lt;font style=&quot;font-size: 14px;&quot;&gt;Time averaged to determine DC offset adjust&lt;/font&gt;" style="swimlane;whiteSpace=wrap;html=1;fillColor=#CCCCCC;strokeColor=#000000;" parent="1" vertex="1">
          <mxGeometry x="350" y="980" width="300" height="220" as="geometry" />
        </mxCell>
        <mxCell id="9bQRH0FdYBQ_Yc0oaRbt-36" value="" style="endArrow=classic;startArrow=classic;html=1;rounded=0;entryX=0.5;entryY=1;entryDx=0;entryDy=0;exitX=1;exitY=0.5;exitDx=0;exitDy=0;strokeWidth=4;" parent="1" source="fKqxcsbEL_6MsnyXHgG2-2" target="fVUcmllLcyqqEy-csJnl-16" edge="1">
          <mxGeometry width="50" height="50" relative="1" as="geometry">
            <mxPoint x="290" y="1250" as="sourcePoint" />
            <mxPoint x="850" y="1174" as="targetPoint" />
            <Array as="points">
              <mxPoint x="1240" y="1100" />
            </Array>
          </mxGeometry>
        </mxCell>
        <mxCell id="9bQRH0FdYBQ_Yc0oaRbt-37" value="&lt;font style=&quot;font-size: 14px;&quot;&gt;Receive I/O pins&lt;br&gt;map binary to int&lt;/font&gt;" style="rounded=0;whiteSpace=wrap;html=1;fillColor=#FFCC99;rotation=0;" parent="1" vertex="1">
          <mxGeometry x="460" y="730" width="120" height="80" as="geometry" />
        </mxCell>
      </root>
    </mxGraphModel>
  </diagram>
</mxfile>
